<svg width="26" height="25" viewBox="0 0 26 25" fill="none" xmlns="http://www.w3.org/2000/svg">
<path d="M24.0197 9.66112V8.35628H19.1539V5.09422H17.849V8.35628H12.6297V5.09422H11.3249V8.35628H4.80078V9.66112H11.3249V13.5756H6.758V14.8804H11.3249V18.1425H12.6297V14.8804H17.849V18.1425H19.1539V14.8804H23.7207V13.5756H19.1539V9.66112H24.0197ZM17.849 13.5756H12.6297V9.66112H17.849V13.5756Z" fill="#383838"/>
<path d="M25.4439 6.68959C25.4859 6.41113 25.4671 6.1269 25.3891 5.85634C25.311 5.58578 25.1754 5.33528 24.9916 5.12195C24.8079 4.90847 24.5803 4.73718 24.3243 4.6198C24.0683 4.50241 23.79 4.4417 23.5084 4.44182H4.64249L3.7574 0.931976L3.75709 0.93207V0.931976H0.662184C0.301882 0.931976 0.00976562 1.22409 0.00976562 1.58439C0.00976562 1.94473 0.301882 2.23681 0.662184 2.23681H2.74076L4.87429 10.6976L6.89863 18.7949H7.86925C7.19621 19.3334 6.75593 20.1514 6.75593 21.0784C6.75593 22.6973 8.07287 24.0142 9.6918 24.0142C11.3107 24.0142 12.6277 22.6973 12.6277 21.0784C12.6277 20.1514 12.1874 19.3334 11.5143 18.7949H18.9603C18.2873 19.3334 17.847 20.1514 17.847 21.0784C17.847 22.6973 19.1639 24.0142 20.7828 24.0142C22.4018 24.0142 23.7187 22.6973 23.7187 21.0784C23.7187 20.1514 23.2784 19.3334 22.6054 18.7949H23.6282L25.4439 6.68959ZM9.69177 22.7094C8.79216 22.7094 8.06074 21.9776 8.06074 21.0783C8.06074 20.179 8.79216 19.4473 9.69177 19.4473C10.5914 19.4473 11.3228 20.179 11.3228 21.0783C11.3228 21.9776 10.5914 22.7094 9.69177 22.7094ZM20.7828 22.7094C19.8832 22.7094 19.1517 21.9776 19.1517 21.0783C19.1517 20.179 19.8832 19.4473 20.7828 19.4473C21.6824 19.4473 22.4138 20.179 22.4138 21.0783C22.4138 21.9776 21.6824 22.7094 20.7828 22.7094ZM4.98217 5.74666H23.5084C23.7014 5.74666 23.8766 5.82726 24.0028 5.97316C24.1283 6.11937 24.1818 6.30509 24.1531 6.49592L22.5043 17.4901H7.91803L6.9419 13.5857L6.94789 13.5842L6.20995 10.6577L4.98217 5.74666Z" fill="#383838"/>
</svg>
